<svg xmlns="http://www.w3.org/2000/svg" viewBox="-1437 6311.421 54 50.525">
  <defs>
    <style>
      .cls-1 {
        font-size: 12px;
        font-family: HelveticaNeue-Bold, Helvetica Neue;
        font-weight: 700;
      }

      .cls-2 {
        fill: #fcfcfc;
        stroke: #000;
      }
    </style>
  </defs>
  <g id="Group_291" data-name="Group 291" transform="translate(-1488 5763)">
    <text id="about_me" data-name="about me" class="cls-1" transform="translate(51 595.946)"><tspan x="0" y="0">about me</tspan></text>
    <path id="Path_143" data-name="Path 143" class="cls-2" d="M11.655,29.6A6.791,6.791,0,0,1,10.4,22.016c1.594-3.043,5.169-3.285,5.652-3.285,2.077-.1,5.459.676,6.618,3.671a6.341,6.341,0,0,1-2.174,7.1C28.561,27.04,33.3,18.925,31.6,11.437,29.866,3.805,22.089-.252,15.278-.011,8.9.279,1.9,4.433.351,11.534-1.291,18.925,3.394,27.04,11.655,29.6Z" transform="translate(63.253 548.944)"/>
  </g>
</svg>
