<svg xmlns="http://www.w3.org/2000/svg" viewBox="35.737 4421.485 135.263 104.442">
  <path id="Path_733" data-name="Path 733" d="M28.691,94.988a21.512,21.512,0,0,0-1.844,2.869c-.512.82-1.025,1.639-1.639,2.459-5.636.2-5.636.2-7.788-1.537.41-1.025.82-1.947,1.332-3.074a1.956,1.956,0,0,1,.82-.307c3.176-.2,3.176-.2,4.1-2.972,1.742-5.636,3.586-11.271,4.2-17.215.1-1.537.922-2.972,1.025-4.714.307-4.918-1.025-9.325-2.459-13.833-1.025-3.279-2.664-6.353-.922-10.247,1.435-3.176-1.23-5.943-3.279-8.2A29.216,29.216,0,0,1,16.19,28.9c-.717-1.947-1.025-4.1-1.947-5.841-1.742-3.381-3.791-6.66-5.738-9.939-.717-1.332-1.23-.1-2.152.41-.1-1.025-.1-1.742-.2-2.767C4.406,9.837,2.357,8.812.308,7.788-1.229,4.406,3.382,5.226,3.484,3.177c5.226,2.152,8.5,6.148,11.886,10.247,3.689,4.406,6.763,9.222,10.247,13.833.615.82,1.025,1.742,1.947,1.332s2.049-1.332,2.152-2.152c.41-2.254-.615-4.1-2.152-5.738a5.9,5.9,0,0,1-1.947-3.279c-.922-4.3-.717-5.328,3.074-7.583a4.734,4.734,0,0,0,.717-.717C29.2,8.1,29,7.173,28.794,6.148l-.615-3.074c2.767.2,4.3,2.152,6.251,4.1,1.537,0,3.176-.1,4.816,0,1.537.2,2.767-.82,2.767-1.639C41.807,2.459,44.574,1.844,45.7,0c2.664-.1,2.664,2.152,3.279,3.381s.82,3.279.1,4.3c-1.025,1.537-.615,2.869-.82,4.3-.41,3.586-.615,7.275-1.025,10.862-.512,3.586.717,6.763,2.459,9.734.82,1.537,2.049,2.972,1.742,4.918a1.89,1.89,0,0,0,.41,1.332c3.484,1.639,5.533,5.123,8.915,6.865,4.406,2.357,6.968,6.251,9.325,10.349a99.068,99.068,0,0,1,6.455,14.755c1.947,5.328,1.844,9.529.41,16.907-.82,4.1.2,6.148,4.1,7.992,4.918,2.254,10.144,2.152,15.063,1.127,2.664-.512,5.328-.2,7.89-.615.922,1.435,2.357,1.025,3.689,1.025,3.279,0,6.66-.717,9.632.2s6.046.512,9.017,1.639c1.947.717,4.509.512,6.66,1.23a5.847,5.847,0,0,1,2.254,1.742c-3.586-.307-7.275,1.435-10.759-.717-.717-.41-2.049-.1-3.074-.1-8.2,0-16.395-.1-24.592,0-2.767,0-5.533.717-8.3.922s-5.431-.1-8.2.1a7.371,7.371,0,0,1-4.714-1.127c-1.742-1.23-3.074-1.127-4.816,0a12.4,12.4,0,0,1-8.3,2.152c-2.049-.2-4,1.639-6.251,1.025-1.025-.307-2.254.307-3.279-.717a3.148,3.148,0,0,0-2.869-.2c-2.152,1.537-4.509.922-6.763.922-3.279,0-3.894-1.332-2.459-4.714-11.169-.82-11.169-.82-12.194-4.611,1.639-.41,3.586-1.947,4.816-1.537,2.152.82,4.3.2,6.148,1.025,3.279,1.435,6.455.512,9.632.615a5.315,5.315,0,0,0,0-1.332A19.02,19.02,0,0,1,44.164,79c.2-2.357,0-4.714,0-6.763l-4.611-4.611a6.376,6.376,0,0,0-1.435,1.947,93.043,93.043,0,0,1-7.275,17.829A15.244,15.244,0,0,0,28.691,94.988Z" transform="translate(35.743 4421.488)"/>
</svg>
