<?xml version="1.0" encoding="utf-8"?>
<!-- Generator: Adobe Illustrator 22.0.1, SVG Export Plug-In . SVG Version: 6.00 Build 0)  -->
<svg version="1.1" id="Layer_1" xmlns="http://www.w3.org/2000/svg" xmlns:xlink="http://www.w3.org/1999/xlink" x="0px" y="0px"
	 viewBox="0 0 168.4 181.9" style="enable-background:new 0 0 168.4 181.9;" xml:space="preserve">
<g id="Group_288" transform="translate(-642.122 5785.788) rotate(180)">
	<path id="Path_18" style="fill:#FFFFFF;" d="M-644.4,5603.9c2.5,1.5,3,3,1.4,5.5c-3.9,6.2-10,10.8-17,12.8
		c-7.3,2.1-14.5,1.6-21.8,0c-6.8-1.6-13.8-2.3-20.9-2.2c-8.8,0.2-17.4,1.9-25.7,5c-0.3,0.1-0.5,0.3-0.6,0.6c1.6,0.1,3.3,0.2,5.2,0.3
		c-1.1,2.1-1.9,4-3,5.8c-4.1,6.7-8.2,13.3-12.4,19.9c-0.5,0.7-0.5,1.1,0.1,1.7c1.6,1.7,3.1,3.5,4.8,5.5c2.2-3.2,4.5-6.2,6.3-9.4
		c4.1-7,8-14.2,12-21.3c0.4-0.8,0.8-1.1,1.8-0.8c1.9,0.6,3.9,1,6,1.5c-0.8,1.9-1.5,3.7-2.3,5.4c-3.3,6.5-6.5,13-10.1,19.4
		c-2.5,4.4-5.5,8.4-8.2,12.7c-0.3,0.4-0.3,0.9-0.1,1.4c1.6,1.9,3.2,3.7,5,5.7c9.6-12.9,17.4-27,23.2-41.9c2.1,1,4.3,1.9,6.5,3
		c-0.8,2.4-1.5,4.8-2.4,7.1c-4.2,11.6-9.9,22.7-16.8,33c-4.4,6.4-9.1,12.8-14,18.8c-8,9.8-16.8,18.8-26.4,27.1
		c-9.3,8.3-19.2,16-29.5,23c-4.2,2.8-8.5,5.6-12.9,8.5c-1.1-1.7-2.1-3.3-3.1-4.9c-0.3-0.5-0.6-1.1-1-1.6c-1.4-2.4-1.4-2.4,0.9-3.8
		c10.4-6.5,20.4-13.7,30-21.4c0.2-0.2,0.5-0.3,0.8-0.4c-2-2.2-3.7-4.2-5.6-6.2c-9.8,7.9-20.1,15.3-30.8,22.1
		c-0.3-0.6-0.5-1.1-0.8-1.7c-0.9-2.9-1.8-5.8-2.7-8.7c-0.3-0.7,0-1.5,0.7-1.8c8.2-5.8,16.3-11.7,24.4-17.6c0.6-0.4,1.1-1,1.7-1.5
		c-1.8-2-3.5-4-5.3-6c-7.8,5.7-15.4,11.4-23.3,17.3c-1.3-10.3-0.5-20.7,2.1-30.6c3.1,4.2,6.1,8.1,9.2,12.2c2.2-1.7,4.3-3.3,6.4-5.1
		c-1.8-2.4-3.6-4.6-5.3-7c-2.3-3.1-4.5-6.2-6.7-9.3c-0.2-0.3-0.3-0.7-0.2-1c1.7-3.6,3.5-7.1,5.5-11.1c11.1,18.4,24,35.6,38.6,51.4
		c2-1.9,4-3.7,6-5.5c-2.1-2.4-4.3-4.6-6.2-7c-5.8-7.1-11.7-14.2-17.1-21.6c-5.4-7.4-10.2-15.2-15.3-22.7c-0.8-0.8-0.7-2.1,0.1-2.8
		c0.1-0.1,0.1-0.1,0.2-0.2c1.8-1.9,3.5-3.8,5.2-5.8c0.3-0.3,0.5-0.9,0.9-1.2c11.7,19.3,25.3,37.3,40.7,53.9c1.7-1.9,3.4-3.6,5-5.4
		c0.2-0.5,0.1-1-0.2-1.4c-2.2-2.5-4.5-4.9-6.6-7.5c-5.2-6.4-10.6-12.7-15.4-19.4c-5.7-8-11-16.2-16.4-24.4c-0.2-0.4-0.4-0.7-0.6-1.1
		c3.1-2.1,6.1-4.2,9.1-6.2c6.1,8.8,12,17.5,18.2,26.1c6.3,8.5,13.1,16.7,20.3,24.4c1.7-2.1,3.4-4.2,5.2-6.4
		c-13.5-14.8-25.6-30.8-36.1-47.9c2.3-0.9,4.6-1.8,6.8-2.6c0.3-0.1,1,0.3,1.3,0.7c3.4,4.7,6.7,9.5,10,14.2c0.1,0.2,0.2,0.5,0.3,0.7
		c2.1-2.4,3.9-4.4,5.7-6.5c-2.8-3.9-5.5-7.7-8.4-11.7c1.5-0.9,2.8-1.7,4.2-2.4c10.7-5.7,22.5-9.3,34.6-10.5
		c10.3-1.1,20.5,0,30.6,2.2c6.7,1.4,13.4,1.3,19.8-1.6c4-1.8,7.4-4.8,9.9-8.5c0.7-0.9,1.5-1.7,2.3-2.5
		C-645.6,5603.9-645,5603.9-644.4,5603.9z"/>
	<path id="Path_19" style="fill:#FFFFFF;" d="M-735.9,5785.8c2.8-2.1,5.5-4.2,8.3-6.3c5.9-4.6,11.8-9.3,17.5-14
		c7.3-6.1,14.2-12.7,20.7-19.7c8-8.5,15.4-17.6,22-27.3c5.6-8.3,10.6-17.1,14.8-26.2c0.3-0.6,0.6-1.1,1-1.7
		c1.3,7.9,1.6,15.9,0.8,23.9c-0.1,0.1-0.2,0.1-0.3,0.1c-2.3-0.8-2.3-0.8-3.5,1.3c-0.9,1.5-1.8,3-2.8,4.6c1.4,0.7,2.7,1.3,4.1,1.9
		c0.7,0.1,1.1,0.8,1,1.5c0,0.1-0.1,0.2-0.1,0.3c-1.1,3.5-2,7-3.1,10.6c-2.9-1.3-5.5-2.5-8.1-3.6c-0.3-0.1-1.1-0.2-1.2,0
		c-1.5,1.9-3,3.9-4.6,6c3.5,1.6,6.9,3.2,10.5,4.8c-0.8,1.5-1.6,2.8-2.3,4.2c-0.1,0.3-0.3,0.5-0.5,0.7c-1.7,2.8-1.7,2.8-4.8,1.5
		c-2.6-1.1-5.1-2.2-7.7-3.3c-0.5-0.1-1-0.1-1.3,0.2c-1.6,1.8-3.2,3.6-5,5.7c4.2,1.8,8.1,3.5,12.4,5.4c-2.7,2.8-5.3,5.5-7.9,8
		c-0.2,0.2-0.9,0.1-1.3,0c-3.1-1.2-6.2-2.5-9.2-3.8c-0.8-0.4-1.7-0.3-2.3,0.4c-1.6,1.7-3.3,3.2-5.2,5c3.6,1.6,6.9,3,10.5,4.6
		c-1.7,1.1-3.1,2.1-4.6,2.9c-2.6,1.5-5.3,3-8,4.4c-0.6,0.2-1.3,0.3-1.9,0c-1.8-0.6-3.5-1.5-5.2-2.2c-0.4-0.2-0.9-0.2-1.3,0.1
		c-2,1.6-4,3.3-6.1,5.1c0.9,0.6,1.6,1,2.3,1.4v0.4c-3.5,0.7-7.1,1.4-10.6,2c-2.1,0.4-4.3,0.6-6.4,0.9
		C-729,5785.8-732.5,5785.8-735.9,5785.8z"/>
	<path id="Path_20" style="fill:#FFFFFF;" d="M-777.5,5770.2c2.6-1.7,5.1-3.4,7.7-5.1c10-6.6,19.6-13.8,28.8-21.6
		c9.3-7.8,18.1-16.3,26.3-25.4c11.4-12.5,21.2-26.3,29.2-41.2c4.2-7.9,7.7-16.1,10.4-24.7c0.3-1.1,0.8-2.2,1.3-3.6
		c1.7,1.9,3.4,3.7,4.9,5.6c2.6,3.1,2.4,3.1,1.2,7c-3.5,10.9-8.2,21.4-14,31.3c-4.5,7.5-9.4,14.7-14.9,21.6
		c-7.1,9.2-15,17.7-23.5,25.6c-5.9,5.5-12,10.8-18.3,15.8c-5.9,4.8-12.1,9.2-18.2,13.6c-3.3,2.4-6.8,4.5-10.2,6.7
		c-0.4,0.3-0.9,0.3-1.4,0.2c-3-1.8-6.1-3.8-9.1-5.7C-777.4,5770.5-777.4,5770.4-777.5,5770.2z"/>
	<path id="Path_21" style="fill:#FFFFFF;" d="M-791.5,5758.3c2.7-1.7,4.8-3,6.8-4.5c6.7-4.6,13.4-9.1,19.9-14.1
		c6.7-5.2,13.2-10.7,19.6-16.3c4.8-4.3,9.4-8.8,13.8-13.5c5.4-5.9,10.7-11.9,15.7-18.2c6.9-8.8,13-18.3,18.2-28.2
		c4-7.6,7.3-15.6,10.1-23.7c0.1-0.4,0.3-0.8,0.6-1.4c2,1.5,4,2.8,5.8,4.3c0.3,0.4,0.4,0.8,0.2,1.3c-2.4,8.5-5.5,16.7-9.4,24.6
		c-3.8,8-8.3,15.7-13.5,22.8c-5,6.8-10.1,13.5-15.7,19.8c-6.2,6.9-12.8,13.5-19.5,19.8c-5.8,5.4-12,10.3-18.1,15.2
		c-8.4,6.6-17.3,12.7-26.4,18.3c-0.6,0.3-0.9,0.6-1.5,0C-787,5762.4-789.1,5760.5-791.5,5758.3z"/>
	<path id="Path_22" style="fill:#FFFFFF;" d="M-660.5,5666.1c1.7,3.8,3.3,7.5,4.9,11.2c0.1,0.5,0,1-0.2,1.4
		c-3.6,9.8-8.2,19.2-13.9,28c-4.4,6.7-8.8,13.4-13.9,19.6c-5.6,6.9-11.6,13.6-18,19.9c-6.4,6.4-13.3,12.5-20.2,18.4
		c-5.7,4.8-11.8,9.1-17.7,13.5c-2.4,1.8-5,3.5-7.5,5.1c-0.4,0.3-0.9,0.5-1.4,0.5c-3.4-0.9-6.7-1.9-10.5-2.9c1.5-1.1,2.8-1.9,4-2.8
		c6.2-4.4,12.5-8.6,18.5-13.3c6.8-5.4,13.4-11,19.8-16.9c5.8-5.3,11.3-11,16.6-16.7c4.3-4.7,8.3-9.6,12-14.7
		c4.2-5.7,8.2-11.5,11.9-17.5c3.2-5.3,6.1-10.8,8.7-16.4C-665,5677.2-662.9,5671.8-660.5,5666.1z"/>
</g>
</svg>
