<svg xmlns="http://www.w3.org/2000/svg" viewBox="-1454 4814.442 284 117.888">
  <defs>
    <style>
      .cls-1 {
        fill: #6c0884;
      }

      .cls-2 {
        fill: #ce0cce;
        font-size: 35px;
        font-family: Helvetica;
      }

      .cls-3 {
        fill: #e40ced;
      }
    </style>
  </defs>
  <g id="Group_288" data-name="Group 288" transform="translate(-1488 4759)">
    <path id="Path_41" data-name="Path 41" class="cls-1" d="M43.44,36.514c-.21-5.666-1.259-9.443-3.568-11.332a14.891,14.891,0,0,0-6.505-3.358L10.283,19.306c-2.518-.21-4.827-1.889-6.925-4.617A15.249,15.249,0,0,1,0,5.246V0L2.518.21V4.617A9.855,9.855,0,0,0,4.2,10.073,6.463,6.463,0,0,0,8.6,13.011l24.553,2.728c2.728.21,5.246,1.679,7.765,3.777A9.766,9.766,0,0,1,44.7,26.861h0c0-2.728,1.259-4.827,3.777-6.715a10.916,10.916,0,0,1,6.505-2.1h1.259l24.553,2.938h.63A4.237,4.237,0,0,0,85.2,19.1a8.539,8.539,0,0,0,1.679-5.036V9.653l2.518.21v5.246c0,3.567-1.049,6.505-3.358,8.6a8.36,8.36,0,0,1-6.3,3.148H78.9L55.821,24.343h-.839a10.154,10.154,0,0,0-5.666,1.889c-2.1,1.469-3.358,5.036-3.567,10.493Z" transform="matrix(0.995, -0.105, 0.105, 0.995, 91.837, 136.808)"/>
    <text id="WEBDEVSHELLY" class="cls-2" transform="translate(34 125.997)"><tspan x="0" y="0">WEB</tspan><tspan class="cls-1" y="0">DEV</tspan><tspan class="cls-3" y="0">SHELLY</tspan></text>
    <path id="Path_42" data-name="Path 42" class="cls-1" d="M102.9,35.579,88.358,8.8,74.2,32.136l-6.5-.765L86.828,0l3.443.383,19.511,35.961Z" transform="translate(73.863 55.442)"/>
    <path id="Path_43" data-name="Path 43" class="cls-1" d="M79.6,36.679,65.058,9.9,50.9,33.236l-6.5-.765L63.528,1.1l3.443.383L86.482,37.444Z" transform="translate(42.026 54.55)"/>
  </g>
</svg>
